# xmcd
#
# Track frame offsets: 
#        150
#        17728
#        34208
#        51436
#        71412
#        87099
#        103837
#        125538
#        139789
#        155859
#
# Disc length: 2291 seconds
#
# Revision: 0
# Processed by: cddbd v1.5.2PL0 Copyright (c) Steve Scherf et al.
# Submitted via: ExactAudioCopy v1.1
#
DISCID=8c08f10a
DTITLE=Bazart - 2
DYEAR=2018
DGENRE=Pop
TTITLE0=Intro
TTITLE1=Grip (Omarm Me)
TTITLE2=Bazart Feat. Eefje De Visser - Onder Ons
TTITLE3=Ademnood
TTITLE4=Zonde
TTITLE5=Niets Is Zeker
TTITLE6=Het Doet Me Toch Iets
TTITLE7=Vijf Dagen
TTITLE8=Bazart Feat. Baloji - Niet Te Dichtbij (Côte A Côte)
TTITLE9=Nodig
EXTD=
EXTT0=
EXTT1=
EXTT2=
EXTT3=
EXTT4=
EXTT5=
EXTT6=
EXTT7=
EXTT8=
EXTT9=
PLAYORDER=
